<?xml version="1.0" encoding="UTF-8" standalone="no"?>
<!-- Created with Inkscape (http://www.inkscape.org/) -->

<svg
   version="1.1"
   id="svg1"
   width="1080"
   height="1080"
   viewBox="0 0 1080 1080"
   sodipodi:docname="profile_lemon.png"
   xmlns:inkscape="http://www.inkscape.org/namespaces/inkscape"
   xmlns:sodipodi="http://sodipodi.sourceforge.net/DTD/sodipodi-0.dtd"
   xmlns="http://www.w3.org/2000/svg"
   xmlns:svg="http://www.w3.org/2000/svg">
  <defs
     id="defs1" />
  <sodipodi:namedview
     id="namedview1"
     pagecolor="#505050"
     bordercolor="#eeeeee"
     borderopacity="1"
     inkscape:showpageshadow="0"
     inkscape:pageopacity="0"
     inkscape:pagecheckerboard="0"
     inkscape:deskcolor="#505050">
    <inkscape:page
       x="0"
       y="0"
       width="1080"
       height="1080"
       id="page2"
       margin="0"
       bleed="0" />
  </sodipodi:namedview>
  <g
     inkscape:groupmode="layer"
     inkscape:label="Image"
     id="g1">
    <path
       style="fill:#000000"
       d="M 520.09207,820.54317 C 503.64443,816.16818 491.41167,809.25167 480.08,797.92 c -33.88426,-33.88426 -33.75346,-88.13543 0.29458,-122.18347 10.4094,-10.4094 24.84408,-18.77526 38.62542,-22.386 9.04063,-2.36867 32.95937,-2.36867 42,0 28.14836,7.37494 51.79451,30.30169 61.00549,59.14947 3.14536,9.85092 3.93898,31.15719 1.55901,41.8547 -6.27478,28.20391 -25.84135,51.91125 -51.34721,62.21352 -10.09389,4.07711 -17.3246,5.51355 -30.21729,6.00293 -11.08636,0.42082 -13.56395,0.19147 -21.90793,-2.02798 z M 325.49175,728.25 c 2.13629,-34.01079 8.60812,-59.47133 22.05103,-86.75 20.54809,-41.69667 54.48219,-76.37731 95.16986,-97.26357 4.00333,-2.05504 7.27868,-3.96143 7.27855,-4.23643 -1.3e-4,-0.275 -3.72428,-2.4019 -8.27589,-4.72644 C 401.50015,514.7354 365.7651,477.50948 345.89509,435.45573 333.81903,409.89742 327.52124,384.06042 325.49175,351.75 L 324.87933,342 h 43.04128 43.04129 l 0.4567,2.25 c 0.25119,1.2375 0.94569,7.00704 1.54333,12.82121 1.99409,19.39937 8.5599,38.44206 19.18727,55.64841 6.64027,10.75101 25.21431,29.92498 35.8508,37.00876 14.04203,9.35182 30.22702,16.25049 46.66573,19.89074 10.40241,2.30354 40.54147,2.33798 50.83427,0.0581 23.52197,-5.2102 45.5359,-16.93288 62.48999,-33.27667 10.30445,-9.93352 15.08261,-15.87442 21.92797,-27.26405 9.3755,-15.59936 15.17641,-33.34721 17.20432,-52.63649 0.57822,-5.5 1.24704,-11.01732 1.48626,-12.26072 l 0.43495,-2.26072 42.72825,0.26072 L 754.5,342.5 754.18079,353 c -1.02859,33.83443 -11.98337,70.78708 -29.88305,100.80151 -20.11697,33.73241 -49.19235,61.51443 -84.54774,80.78682 -4.8125,2.62332 -8.75,5.0676 -8.75,5.43174 0,0.36414 2.3625,1.92279 5.25,3.46366 43.16171,23.03264 75.41436,55.89461 96.19889,98.01627 13.44404,27.24553 19.92167,52.72151 22.06015,86.76067 l 0.6132,9.76067 -43.31112,-0.26067 L 668.5,737.5 667.71887,727.23342 c -1.52261,-20.01196 -8.92433,-42.3175 -19.86807,-59.8736 -6.40652,-10.27744 -21.1102,-26.12006 -31.49897,-33.93888 -13.96097,-10.50733 -33.56299,-19.31573 -51.01756,-22.92534 -10.83897,-2.2415 -39.86412,-2.23435 -50.72903,0.0125 -38.79393,8.02252 -73.26103,35.12161 -90.18445,70.90577 -6.73474,14.24045 -12.39427,36.92177 -12.41489,49.75434 C 411.99404,738.54577 415.52289,738 367.83267,738 H 324.87933 Z M 525.83086,428.04861 c -23.34085,-4.2975 -43.01653,-17.25787 -56.73896,-37.37396 -16.41572,-24.06428 -19.01725,-57.2694 -6.54872,-83.5859 15.18215,-32.04393 47.94902,-51.81527 82.45682,-49.75398 45.26834,2.70408 80.12151,40.00644 80.07993,85.70729 -0.0352,38.68575 -25.55208,72.6872 -62.25893,82.96054 -8.25862,2.31139 -29.24435,3.47215 -36.99014,2.04601 z"
       id="path1" />
  </g>
</svg>
